<svg width="120" height="120" viewBox="0 0 120 120" fill="none"
    xmlns="http://www.w3.org/2000/svg">
    <g id="Center">
        <g id="Union">
            <path d="M41.6662 56.8054C26.9664 58.1411 28.0164 44.5078 28.0164 44.5078C30.0964 46.4352 34.1872 47.1318 38.6638 47.8942C45.265 49.0184 52.7053 50.2855 55.7742 55.8525C60.9215 65.1947 55.7742 75.4918 55.7742 75.4918C55.7742 75.4918 52.9155 70.3445 43.3363 72.2501C33.7598 74.1557 33.4683 67.2917 33.4683 67.2917C42.0492 69.7722 44.9077 65.9583 44.9077 65.9583C26.413 70.1526 28.7019 54.3275 28.7019 54.3275C32.5134 59.2832 41.6662 56.8054 41.6662 56.8054Z" fill="#A3FFB7"/>
            <path d="M91.9837 44.5078C91.9837 44.5078 93.0312 58.1415 78.3366 56.8081C78.3366 56.8081 87.4863 59.286 91.2975 54.3275C91.2975 54.3275 93.5868 70.1528 75.0917 65.9583C75.0917 65.9583 77.9504 69.7695 86.5311 67.2917C86.5311 67.2917 86.2423 74.1557 76.6631 72.2501C67.0863 70.3445 64.2252 75.4918 64.2252 75.4918C64.2252 75.4918 59.0779 65.1947 64.2252 55.8525C67.2945 50.2849 74.7367 49.0172 81.3389 47.8926C85.8145 47.1303 89.9041 46.4337 91.9837 44.5078Z" fill="#A3FFB7"/>
        </g>
    </g>
</svg>
