<svg width="198" height="20" viewBox="0 0 198 20" fill="none" xmlns="http://www.w3.org/2000/svg">
<path d="M8.90634 8.08937C0.243967 8.88801 0.862695 0.736328 0.862695 0.736328C2.0884 1.88875 4.49903 2.30531 7.13702 2.76115C11.0271 3.43334 15.4115 4.19097 17.2199 7.51962C20.2532 13.1056 17.2199 19.2625 17.2199 19.2625C17.2199 19.2625 15.5354 16.1848 9.89052 17.3242C4.24721 18.4636 4.07543 14.3594 4.07543 14.3594C9.13204 15.8426 10.8165 13.5622 10.8165 13.5622C-0.0821915 16.07 1.26663 6.60781 1.26663 6.60781C3.51269 9.57093 8.90634 8.08937 8.90634 8.08937Z" fill="#A3FFB7"/>
<path d="M33.2461 18.912V7.37101H26.5681V3.61144H44.2972V7.37101H37.5976V18.912H33.2461Z" fill="#A3FFB7"/>
<path d="M55.3493 19.2617C50.0284 19.2617 46.4955 17.1196 46.5601 13.8628H51.2132C51.1917 14.4311 51.9456 15.4366 54.9615 15.5022C57.3096 15.5459 59.55 15.371 59.55 14.1907C59.55 12.0049 46.9048 15.0213 46.9048 8.4639C46.9048 5.31636 50.1361 3.26172 54.9615 3.26172C59.9162 3.26172 63.3198 5.4038 63.3629 8.66063H58.7098C58.7314 8.09232 58.2144 7.065 55.3277 7.02128C53.1735 6.97757 51.2778 7.15243 51.2778 8.33276C51.2778 10.6934 63.923 7.96117 63.923 14.0595C63.923 17.2071 60.4978 19.2617 55.3493 19.2617Z" fill="#A3FFB7"/>
<path d="M75.5932 19.2617C70.6601 19.2617 67.3642 17.4694 67.3642 10.9557V3.61144H71.7156V11.6114C71.7156 14.0595 73.202 15.3273 75.5932 15.3273C77.9844 15.3273 79.4708 14.0595 79.4708 11.6114V3.61144H83.8223V10.9557C83.8223 17.4694 80.5263 19.2617 75.5932 19.2617Z" fill="#A3FFB7"/>
<path d="M88.127 18.912V3.61144H99.652C102.776 3.61144 104.499 5.31636 104.499 7.65516C104.499 9.90653 102.862 10.9776 100.32 11.1306C103.142 11.1961 104.994 12.4639 104.994 14.8464C104.994 17.2945 103.056 18.912 100.126 18.912H88.127ZM92.5 9.40379H98.898C99.6089 9.40379 100.147 9.20707 100.147 8.39833C100.147 7.58959 99.6089 7.37101 98.898 7.37101H92.4785L92.5 9.40379ZM92.5215 15.1306H99.3719C100.083 15.1306 100.621 14.8683 100.621 14.0595C100.621 13.2508 100.083 12.8792 99.3719 12.8792H92.5L92.5215 15.1306Z" fill="#A3FFB7"/>
<path d="M106.232 18.912L115.258 3.61144H119.933L128.959 18.912H123.811L122.389 16.3328H112.803L111.381 18.912H106.232ZM114.871 12.5732H120.321L117.607 7.58959L114.871 12.5732Z" fill="#A3FFB7"/>
<path d="M138.947 19.2617C133.627 19.2617 130.094 17.1196 130.158 13.8628H134.811C134.79 14.4311 135.544 15.4366 138.56 15.5022C140.908 15.5459 143.148 15.371 143.148 14.1907C143.148 12.0049 130.503 15.0213 130.503 8.4639C130.503 5.31636 133.734 3.26172 138.56 3.26172C143.514 3.26172 146.918 5.4038 146.961 8.66063H142.308C142.33 8.09232 141.813 7.065 138.926 7.02128C136.772 6.97757 134.876 7.15243 134.876 8.33276C134.876 10.6934 147.521 7.96117 147.521 14.0595C147.521 17.2071 144.096 19.2617 138.947 19.2617Z" fill="#A3FFB7"/>
<path d="M148.705 18.912L157.731 3.61144H162.405L171.431 18.912H166.283L164.861 16.3328H155.275L153.853 18.912H148.705ZM157.343 12.5732H162.793L160.079 7.58959L157.343 12.5732Z" fill="#A3FFB7"/>
<path d="M197.137 0.736328C197.137 0.736328 197.754 8.8883 189.095 8.09102C189.095 8.09102 194.487 9.57258 196.733 6.60781C196.733 6.60781 198.082 16.0702 187.183 13.5622C187.183 13.5622 188.868 15.841 193.924 14.3594C193.924 14.3594 193.754 18.4636 188.109 17.3242C182.466 16.1848 180.78 19.2625 180.78 19.2625C180.78 19.2625 177.746 13.1056 180.78 7.51962C182.588 4.19059 186.974 3.43262 190.864 2.7602C193.502 2.30436 195.912 1.88784 197.137 0.736328Z" fill="#A3FFB7"/>
</svg>
