<svg viewBox="0 0 32 32" fill="none" xmlns="http://www.w3.org/2000/svg">
<path d="M25.1283 23.1483C25.6905 23.7089 25.6905 24.6186 25.1283 25.1794C24.5661 25.7401 23.654 25.7401 23.0917 25.1794L16.0014 18.0555L8.86063 25.177C8.29843 25.7377 7.38628 25.7377 6.82402 25.177C6.26176 24.6163 6.26182 23.7066 6.82402 23.1459L13.9672 16.0268L6.82204 8.85154C6.25984 8.29086 6.25984 7.38117 6.82204 6.82043C7.38424 6.2597 8.29639 6.25976 8.85865 6.82043L16.0014 13.9981L23.1421 6.87669C23.7043 6.31601 24.6165 6.31601 25.1787 6.87669C25.741 7.43736 25.7409 8.34705 25.1787 8.90779L18.0356 16.0268L25.1283 23.1483Z" fill="white"/>
</svg>
